<mxfile host="app.diagrams.net" modified="2024-03-24T06:29:21.745Z" agent="Mozilla/5.0 (Windows NT 10.0; Win64; x64) AppleWebKit/537.36 (KHTML, like Gecko) Chrome/122.0.0.0 Safari/537.36" etag="cify6Pd-mJ9Yd2SImWIn" version="24.1.0" type="github">
  <diagram name="Page-1" id="CKj48DAWiWCRyITGraYO">
    <mxGraphModel dx="1509" dy="821" grid="1" gridSize="10" guides="1" tooltips="1" connect="1" arrows="1" fold="1" page="1" pageScale="1" pageWidth="1500" pageHeight="1400" math="0" shadow="0">
      <root>
        <mxCell id="0" />
        <mxCell id="1" parent="0" />
        <mxCell id="1pBHq02dKkBtK17RjuQz-1" value="Customers" style="whiteSpace=wrap;html=1;align=center;fillColor=#fff2cc;strokeColor=#d6b656;" parent="1" vertex="1">
          <mxGeometry x="1203" y="423" width="130" height="50" as="geometry" />
        </mxCell>
        <mxCell id="1pBHq02dKkBtK17RjuQz-2" value="customer_id" style="ellipse;whiteSpace=wrap;html=1;align=center;fontStyle=4;fillColor=#dae8fc;strokeColor=#6c8ebf;" parent="1" vertex="1">
          <mxGeometry x="1098" y="320" width="100" height="40" as="geometry" />
        </mxCell>
        <mxCell id="1pBHq02dKkBtK17RjuQz-3" value="customer_name" style="ellipse;whiteSpace=wrap;html=1;align=center;" parent="1" vertex="1">
          <mxGeometry x="1218" y="320" width="100" height="40" as="geometry" />
        </mxCell>
        <mxCell id="1pBHq02dKkBtK17RjuQz-4" value="customer_phone" style="ellipse;whiteSpace=wrap;html=1;align=center;" parent="1" vertex="1">
          <mxGeometry x="1338" y="320" width="100" height="40" as="geometry" />
        </mxCell>
        <mxCell id="1pBHq02dKkBtK17RjuQz-6" value="" style="endArrow=none;html=1;rounded=0;exitX=0.5;exitY=1;exitDx=0;exitDy=0;entryX=0.25;entryY=0;entryDx=0;entryDy=0;edgeStyle=orthogonalEdgeStyle;curved=1;" parent="1" source="1pBHq02dKkBtK17RjuQz-2" target="1pBHq02dKkBtK17RjuQz-1" edge="1">
          <mxGeometry width="50" height="50" relative="1" as="geometry">
            <mxPoint x="1228" y="470" as="sourcePoint" />
            <mxPoint x="1278" y="420" as="targetPoint" />
          </mxGeometry>
        </mxCell>
        <mxCell id="1pBHq02dKkBtK17RjuQz-7" value="" style="endArrow=none;html=1;rounded=0;exitX=0.5;exitY=1;exitDx=0;exitDy=0;entryX=0.5;entryY=0;entryDx=0;entryDy=0;edgeStyle=orthogonalEdgeStyle;curved=1;" parent="1" source="1pBHq02dKkBtK17RjuQz-3" target="1pBHq02dKkBtK17RjuQz-1" edge="1">
          <mxGeometry width="50" height="50" relative="1" as="geometry">
            <mxPoint x="1228" y="470" as="sourcePoint" />
            <mxPoint x="1278" y="420" as="targetPoint" />
          </mxGeometry>
        </mxCell>
        <mxCell id="1pBHq02dKkBtK17RjuQz-8" value="" style="endArrow=none;html=1;rounded=0;exitX=0.5;exitY=1;exitDx=0;exitDy=0;entryX=0.75;entryY=0;entryDx=0;entryDy=0;edgeStyle=orthogonalEdgeStyle;curved=1;" parent="1" source="1pBHq02dKkBtK17RjuQz-4" target="1pBHq02dKkBtK17RjuQz-1" edge="1">
          <mxGeometry width="50" height="50" relative="1" as="geometry">
            <mxPoint x="1228" y="470" as="sourcePoint" />
            <mxPoint x="1278" y="420" as="targetPoint" />
          </mxGeometry>
        </mxCell>
        <mxCell id="1pBHq02dKkBtK17RjuQz-9" value="Orders" style="whiteSpace=wrap;html=1;align=center;fillColor=#fff2cc;strokeColor=#d6b656;" parent="1" vertex="1">
          <mxGeometry x="728" y="422" width="130" height="50" as="geometry" />
        </mxCell>
        <mxCell id="1pBHq02dKkBtK17RjuQz-11" value="&lt;u&gt;order_id&lt;/u&gt;" style="ellipse;whiteSpace=wrap;html=1;align=center;fillColor=#dae8fc;strokeColor=#6c8ebf;" parent="1" vertex="1">
          <mxGeometry x="743" y="502" width="100" height="40" as="geometry" />
        </mxCell>
        <mxCell id="1pBHq02dKkBtK17RjuQz-14" value="" style="endArrow=none;html=1;rounded=0;exitX=0.5;exitY=0;exitDx=0;exitDy=0;entryX=0.5;entryY=1;entryDx=0;entryDy=0;edgeStyle=orthogonalEdgeStyle;curved=1;" parent="1" source="1pBHq02dKkBtK17RjuQz-11" target="1pBHq02dKkBtK17RjuQz-9" edge="1">
          <mxGeometry width="50" height="50" relative="1" as="geometry">
            <mxPoint x="753" y="482" as="sourcePoint" />
            <mxPoint x="803" y="432" as="targetPoint" />
          </mxGeometry>
        </mxCell>
        <mxCell id="1pBHq02dKkBtK17RjuQz-16" value="orders" style="shape=rhombus;perimeter=rhombusPerimeter;whiteSpace=wrap;html=1;align=center;fillColor=#e1d5e7;strokeColor=#9673a6;" parent="1" vertex="1">
          <mxGeometry x="988" y="412.5" width="80" height="45" as="geometry" />
        </mxCell>
        <mxCell id="1pBHq02dKkBtK17RjuQz-17" value="" style="endArrow=none;html=1;rounded=0;exitX=1;exitY=0.25;exitDx=0;exitDy=0;entryX=0;entryY=0.5;entryDx=0;entryDy=0;edgeStyle=orthogonalEdgeStyle;" parent="1" source="1pBHq02dKkBtK17RjuQz-9" target="1pBHq02dKkBtK17RjuQz-16" edge="1">
          <mxGeometry relative="1" as="geometry">
            <mxPoint x="948" y="432" as="sourcePoint" />
            <mxPoint x="1108" y="432" as="targetPoint" />
          </mxGeometry>
        </mxCell>
        <mxCell id="1pBHq02dKkBtK17RjuQz-18" value="" style="endArrow=none;html=1;rounded=0;entryX=0;entryY=0.25;entryDx=0;entryDy=0;exitX=1;exitY=0.5;exitDx=0;exitDy=0;edgeStyle=orthogonalEdgeStyle;" parent="1" source="1pBHq02dKkBtK17RjuQz-16" target="1pBHq02dKkBtK17RjuQz-1" edge="1">
          <mxGeometry relative="1" as="geometry">
            <mxPoint x="948" y="420" as="sourcePoint" />
            <mxPoint x="1108" y="420" as="targetPoint" />
          </mxGeometry>
        </mxCell>
        <mxCell id="1pBHq02dKkBtK17RjuQz-19" value="1" style="text;html=1;strokeColor=none;fillColor=none;align=center;verticalAlign=middle;whiteSpace=wrap;rounded=0;" parent="1" vertex="1">
          <mxGeometry x="1068" y="412.5" width="20" height="20" as="geometry" />
        </mxCell>
        <mxCell id="1pBHq02dKkBtK17RjuQz-22" value="m" style="text;html=1;strokeColor=none;fillColor=none;align=center;verticalAlign=middle;whiteSpace=wrap;rounded=0;" parent="1" vertex="1">
          <mxGeometry x="968" y="412.5" width="20" height="20" as="geometry" />
        </mxCell>
        <mxCell id="1pBHq02dKkBtK17RjuQz-91" style="edgeStyle=orthogonalEdgeStyle;rounded=0;orthogonalLoop=1;jettySize=auto;html=1;entryX=0;entryY=0.5;entryDx=0;entryDy=0;endArrow=none;endFill=0;exitX=0;exitY=0.5;exitDx=0;exitDy=0;" parent="1" source="1pBHq02dKkBtK17RjuQz-92" target="1pBHq02dKkBtK17RjuQz-44" edge="1">
          <mxGeometry relative="1" as="geometry">
            <mxPoint x="208" y="512" as="sourcePoint" />
          </mxGeometry>
        </mxCell>
        <mxCell id="1pBHq02dKkBtK17RjuQz-89" style="edgeStyle=orthogonalEdgeStyle;rounded=0;orthogonalLoop=1;jettySize=auto;html=1;exitX=0.5;exitY=0;exitDx=0;exitDy=0;entryX=0.25;entryY=1;entryDx=0;entryDy=0;curved=1;endArrow=none;endFill=0;" parent="1" source="1pBHq02dKkBtK17RjuQz-93" edge="1">
          <mxGeometry relative="1" as="geometry">
            <mxPoint x="178" y="578" as="sourcePoint" />
            <mxPoint x="265.5" y="539" as="targetPoint" />
          </mxGeometry>
        </mxCell>
        <mxCell id="1pBHq02dKkBtK17RjuQz-88" style="edgeStyle=orthogonalEdgeStyle;rounded=0;orthogonalLoop=1;jettySize=auto;html=1;exitX=0.5;exitY=0;exitDx=0;exitDy=0;entryX=0.5;entryY=1;entryDx=0;entryDy=0;endArrow=none;endFill=0;" parent="1" source="1pBHq02dKkBtK17RjuQz-26" edge="1">
          <mxGeometry relative="1" as="geometry">
            <mxPoint x="298" y="539" as="targetPoint" />
          </mxGeometry>
        </mxCell>
        <mxCell id="1pBHq02dKkBtK17RjuQz-26" value="quantity" style="ellipse;whiteSpace=wrap;html=1;align=center;" parent="1" vertex="1">
          <mxGeometry x="248" y="582" width="100" height="40" as="geometry" />
        </mxCell>
        <mxCell id="1pBHq02dKkBtK17RjuQz-35" style="edgeStyle=orthogonalEdgeStyle;rounded=0;orthogonalLoop=1;jettySize=auto;html=1;exitX=1;exitY=0.5;exitDx=0;exitDy=0;entryX=0;entryY=0.5;entryDx=0;entryDy=0;endArrow=none;endFill=0;" parent="1" source="1pBHq02dKkBtK17RjuQz-31" target="1pBHq02dKkBtK17RjuQz-9" edge="1">
          <mxGeometry relative="1" as="geometry">
            <mxPoint x="648" y="447.19047619047615" as="targetPoint" />
          </mxGeometry>
        </mxCell>
        <mxCell id="1pBHq02dKkBtK17RjuQz-36" style="edgeStyle=orthogonalEdgeStyle;rounded=0;orthogonalLoop=1;jettySize=auto;html=1;exitX=0;exitY=0.5;exitDx=0;exitDy=0;endArrow=none;endFill=0;entryX=1;entryY=0.25;entryDx=0;entryDy=0;" parent="1" source="1pBHq02dKkBtK17RjuQz-31" target="1pBHq02dKkBtK17RjuQz-92" edge="1">
          <mxGeometry relative="1" as="geometry">
            <mxPoint x="388" y="502" as="targetPoint" />
          </mxGeometry>
        </mxCell>
        <mxCell id="1pBHq02dKkBtK17RjuQz-31" value="has" style="shape=rhombus;perimeter=rhombusPerimeter;whiteSpace=wrap;html=1;align=center;fillColor=#e1d5e7;strokeColor=#9673a6;" parent="1" vertex="1">
          <mxGeometry x="518" y="424.5" width="80" height="45" as="geometry" />
        </mxCell>
        <mxCell id="1pBHq02dKkBtK17RjuQz-32" value="1" style="text;html=1;strokeColor=none;fillColor=none;align=center;verticalAlign=middle;whiteSpace=wrap;rounded=0;" parent="1" vertex="1">
          <mxGeometry x="598" y="424.5" width="20" height="20" as="geometry" />
        </mxCell>
        <mxCell id="1pBHq02dKkBtK17RjuQz-33" value="m" style="text;html=1;strokeColor=none;fillColor=none;align=center;verticalAlign=middle;whiteSpace=wrap;rounded=0;" parent="1" vertex="1">
          <mxGeometry x="498" y="424.5" width="20" height="20" as="geometry" />
        </mxCell>
        <mxCell id="1pBHq02dKkBtK17RjuQz-87" style="edgeStyle=orthogonalEdgeStyle;rounded=0;orthogonalLoop=1;jettySize=auto;html=1;exitX=0.5;exitY=0;exitDx=0;exitDy=0;entryX=0.75;entryY=1;entryDx=0;entryDy=0;curved=1;endArrow=none;endFill=0;" parent="1" source="1pBHq02dKkBtK17RjuQz-34" edge="1">
          <mxGeometry relative="1" as="geometry">
            <mxPoint x="330.5" y="539" as="targetPoint" />
          </mxGeometry>
        </mxCell>
        <mxCell id="1pBHq02dKkBtK17RjuQz-34" value="Price" style="ellipse;whiteSpace=wrap;html=1;align=center;dashed=1;" parent="1" vertex="1">
          <mxGeometry x="368" y="578" width="100" height="40" as="geometry" />
        </mxCell>
        <mxCell id="1pBHq02dKkBtK17RjuQz-55" style="edgeStyle=orthogonalEdgeStyle;rounded=0;orthogonalLoop=1;jettySize=auto;html=1;exitX=0;exitY=0.25;exitDx=0;exitDy=0;entryX=1;entryY=0.5;entryDx=0;entryDy=0;curved=1;endArrow=none;endFill=0;" parent="1" source="1pBHq02dKkBtK17RjuQz-37" target="1pBHq02dKkBtK17RjuQz-51" edge="1">
          <mxGeometry relative="1" as="geometry" />
        </mxCell>
        <mxCell id="1pBHq02dKkBtK17RjuQz-90" style="edgeStyle=orthogonalEdgeStyle;rounded=0;orthogonalLoop=1;jettySize=auto;html=1;exitX=0.5;exitY=1;exitDx=0;exitDy=0;entryX=1;entryY=0.5;entryDx=0;entryDy=0;endArrow=none;endFill=0;" parent="1" source="1pBHq02dKkBtK17RjuQz-37" target="1pBHq02dKkBtK17RjuQz-44" edge="1">
          <mxGeometry relative="1" as="geometry">
            <Array as="points">
              <mxPoint x="273" y="333" />
              <mxPoint x="303" y="333" />
              <mxPoint x="303" y="447" />
            </Array>
          </mxGeometry>
        </mxCell>
        <mxCell id="1pBHq02dKkBtK17RjuQz-37" value="Menu Items" style="whiteSpace=wrap;html=1;align=center;fillColor=#fff2cc;strokeColor=#d6b656;" parent="1" vertex="1">
          <mxGeometry x="237" y="283" width="130" height="50" as="geometry" />
        </mxCell>
        <mxCell id="1pBHq02dKkBtK17RjuQz-38" value="item_id" style="ellipse;whiteSpace=wrap;html=1;align=center;fontStyle=4;fillColor=#dae8fc;strokeColor=#6c8ebf;" parent="1" vertex="1">
          <mxGeometry x="132" y="193" width="100" height="40" as="geometry" />
        </mxCell>
        <mxCell id="1pBHq02dKkBtK17RjuQz-39" value="name" style="ellipse;whiteSpace=wrap;html=1;align=center;" parent="1" vertex="1">
          <mxGeometry x="252" y="193" width="100" height="40" as="geometry" />
        </mxCell>
        <mxCell id="1pBHq02dKkBtK17RjuQz-40" value="" style="endArrow=none;html=1;rounded=0;exitX=0.5;exitY=1;exitDx=0;exitDy=0;entryX=0.25;entryY=0;entryDx=0;entryDy=0;edgeStyle=orthogonalEdgeStyle;curved=1;" parent="1" source="1pBHq02dKkBtK17RjuQz-38" target="1pBHq02dKkBtK17RjuQz-37" edge="1">
          <mxGeometry width="50" height="50" relative="1" as="geometry">
            <mxPoint x="262" y="343" as="sourcePoint" />
            <mxPoint x="312" y="293" as="targetPoint" />
          </mxGeometry>
        </mxCell>
        <mxCell id="1pBHq02dKkBtK17RjuQz-41" value="" style="endArrow=none;html=1;rounded=0;exitX=0.5;exitY=1;exitDx=0;exitDy=0;entryX=0.5;entryY=0;entryDx=0;entryDy=0;edgeStyle=orthogonalEdgeStyle;curved=1;" parent="1" source="1pBHq02dKkBtK17RjuQz-39" target="1pBHq02dKkBtK17RjuQz-37" edge="1">
          <mxGeometry width="50" height="50" relative="1" as="geometry">
            <mxPoint x="262" y="343" as="sourcePoint" />
            <mxPoint x="312" y="293" as="targetPoint" />
          </mxGeometry>
        </mxCell>
        <mxCell id="1pBHq02dKkBtK17RjuQz-42" value="" style="endArrow=none;html=1;rounded=0;exitX=0.5;exitY=1;exitDx=0;exitDy=0;entryX=0.75;entryY=0;entryDx=0;entryDy=0;edgeStyle=orthogonalEdgeStyle;curved=1;" parent="1" source="1pBHq02dKkBtK17RjuQz-49" target="1pBHq02dKkBtK17RjuQz-37" edge="1">
          <mxGeometry width="50" height="50" relative="1" as="geometry">
            <mxPoint x="422.0000000000002" y="233" as="sourcePoint" />
            <mxPoint x="312" y="293" as="targetPoint" />
          </mxGeometry>
        </mxCell>
        <mxCell id="1pBHq02dKkBtK17RjuQz-44" value="has" style="shape=rhombus;perimeter=rhombusPerimeter;whiteSpace=wrap;html=1;align=center;fillColor=#e1d5e7;strokeColor=#9673a6;" parent="1" vertex="1">
          <mxGeometry x="203" y="424.5" width="80" height="45" as="geometry" />
        </mxCell>
        <mxCell id="1pBHq02dKkBtK17RjuQz-45" value="1" style="text;html=1;strokeColor=none;fillColor=none;align=center;verticalAlign=middle;whiteSpace=wrap;rounded=0;" parent="1" vertex="1">
          <mxGeometry x="283" y="424.5" width="20" height="20" as="geometry" />
        </mxCell>
        <mxCell id="1pBHq02dKkBtK17RjuQz-46" value="n" style="text;html=1;strokeColor=none;fillColor=none;align=center;verticalAlign=middle;whiteSpace=wrap;rounded=0;" parent="1" vertex="1">
          <mxGeometry x="183" y="424.5" width="20" height="20" as="geometry" />
        </mxCell>
        <mxCell id="1pBHq02dKkBtK17RjuQz-49" value="description" style="ellipse;whiteSpace=wrap;html=1;align=center;" parent="1" vertex="1">
          <mxGeometry x="372" y="193" width="100" height="40" as="geometry" />
        </mxCell>
        <mxCell id="1pBHq02dKkBtK17RjuQz-51" value="category" style="ellipse;whiteSpace=wrap;html=1;align=center;" parent="1" vertex="1">
          <mxGeometry x="62" y="263" width="100" height="40" as="geometry" />
        </mxCell>
        <mxCell id="1pBHq02dKkBtK17RjuQz-56" style="edgeStyle=orthogonalEdgeStyle;rounded=0;orthogonalLoop=1;jettySize=auto;html=1;exitX=1;exitY=0.5;exitDx=0;exitDy=0;entryX=0;entryY=0.75;entryDx=0;entryDy=0;curved=1;endArrow=none;endFill=0;" parent="1" source="1pBHq02dKkBtK17RjuQz-52" target="1pBHq02dKkBtK17RjuQz-37" edge="1">
          <mxGeometry relative="1" as="geometry" />
        </mxCell>
        <mxCell id="1pBHq02dKkBtK17RjuQz-52" value="price" style="ellipse;whiteSpace=wrap;html=1;align=center;" parent="1" vertex="1">
          <mxGeometry x="62" y="323" width="100" height="40" as="geometry" />
        </mxCell>
        <mxCell id="1pBHq02dKkBtK17RjuQz-110" style="edgeStyle=orthogonalEdgeStyle;rounded=0;orthogonalLoop=1;jettySize=auto;html=1;exitX=0.5;exitY=0;exitDx=0;exitDy=0;entryX=0;entryY=1;entryDx=0;entryDy=0;curved=1;" parent="1" source="1pBHq02dKkBtK17RjuQz-57" target="1pBHq02dKkBtK17RjuQz-16" edge="1">
          <mxGeometry relative="1" as="geometry" />
        </mxCell>
        <mxCell id="1pBHq02dKkBtK17RjuQz-57" value="order_date" style="ellipse;whiteSpace=wrap;html=1;align=center;" parent="1" vertex="1">
          <mxGeometry x="918" y="489" width="100" height="40" as="geometry" />
        </mxCell>
        <mxCell id="1pBHq02dKkBtK17RjuQz-60" value="Tables" style="whiteSpace=wrap;html=1;align=center;fillColor=#fff2cc;strokeColor=#d6b656;" parent="1" vertex="1">
          <mxGeometry x="606" y="169" width="130" height="50" as="geometry" />
        </mxCell>
        <mxCell id="1pBHq02dKkBtK17RjuQz-82" style="edgeStyle=orthogonalEdgeStyle;rounded=0;orthogonalLoop=1;jettySize=auto;html=1;exitX=0.5;exitY=1;exitDx=0;exitDy=0;entryX=0;entryY=0.25;entryDx=0;entryDy=0;curved=1;endArrow=none;endFill=0;" parent="1" source="1pBHq02dKkBtK17RjuQz-61" target="1pBHq02dKkBtK17RjuQz-60" edge="1">
          <mxGeometry relative="1" as="geometry" />
        </mxCell>
        <mxCell id="1pBHq02dKkBtK17RjuQz-61" value="table_code" style="ellipse;whiteSpace=wrap;html=1;align=center;fontStyle=4;fillColor=#dae8fc;strokeColor=#6c8ebf;" parent="1" vertex="1">
          <mxGeometry x="471" y="149" width="100" height="40" as="geometry" />
        </mxCell>
        <mxCell id="1pBHq02dKkBtK17RjuQz-83" style="edgeStyle=orthogonalEdgeStyle;rounded=0;orthogonalLoop=1;jettySize=auto;html=1;exitX=0.5;exitY=1;exitDx=0;exitDy=0;entryX=0.25;entryY=0;entryDx=0;entryDy=0;curved=1;endArrow=none;endFill=0;" parent="1" source="1pBHq02dKkBtK17RjuQz-62" target="1pBHq02dKkBtK17RjuQz-60" edge="1">
          <mxGeometry relative="1" as="geometry" />
        </mxCell>
        <mxCell id="1pBHq02dKkBtK17RjuQz-62" value="location" style="ellipse;whiteSpace=wrap;html=1;align=center;" parent="1" vertex="1">
          <mxGeometry x="571" y="79" width="100" height="40" as="geometry" />
        </mxCell>
        <mxCell id="1pBHq02dKkBtK17RjuQz-78" style="edgeStyle=orthogonalEdgeStyle;rounded=0;orthogonalLoop=1;jettySize=auto;html=1;exitX=0.5;exitY=1;exitDx=0;exitDy=0;entryX=0.75;entryY=0;entryDx=0;entryDy=0;endArrow=none;endFill=0;curved=1;" parent="1" source="1pBHq02dKkBtK17RjuQz-63" target="1pBHq02dKkBtK17RjuQz-60" edge="1">
          <mxGeometry relative="1" as="geometry" />
        </mxCell>
        <mxCell id="1pBHq02dKkBtK17RjuQz-63" value="num of seats" style="ellipse;whiteSpace=wrap;html=1;align=center;" parent="1" vertex="1">
          <mxGeometry x="711" y="79" width="100" height="40" as="geometry" />
        </mxCell>
        <mxCell id="1pBHq02dKkBtK17RjuQz-81" style="edgeStyle=orthogonalEdgeStyle;rounded=0;orthogonalLoop=1;jettySize=auto;html=1;exitX=0.5;exitY=1;exitDx=0;exitDy=0;entryX=1;entryY=0.25;entryDx=0;entryDy=0;curved=1;endArrow=none;endFill=0;" parent="1" source="1pBHq02dKkBtK17RjuQz-67" target="1pBHq02dKkBtK17RjuQz-60" edge="1">
          <mxGeometry relative="1" as="geometry" />
        </mxCell>
        <mxCell id="1pBHq02dKkBtK17RjuQz-67" value="class" style="ellipse;whiteSpace=wrap;html=1;align=center;" parent="1" vertex="1">
          <mxGeometry x="791" y="149" width="100" height="40" as="geometry" />
        </mxCell>
        <mxCell id="1pBHq02dKkBtK17RjuQz-84" style="edgeStyle=orthogonalEdgeStyle;rounded=0;orthogonalLoop=1;jettySize=auto;html=1;exitX=0;exitY=0.5;exitDx=0;exitDy=0;entryX=0.5;entryY=1;entryDx=0;entryDy=0;endArrow=none;endFill=0;" parent="1" source="1pBHq02dKkBtK17RjuQz-73" target="1pBHq02dKkBtK17RjuQz-60" edge="1">
          <mxGeometry relative="1" as="geometry" />
        </mxCell>
        <mxCell id="1pBHq02dKkBtK17RjuQz-86" style="edgeStyle=orthogonalEdgeStyle;rounded=0;orthogonalLoop=1;jettySize=auto;html=1;exitX=1;exitY=0.5;exitDx=0;exitDy=0;entryX=0.5;entryY=0;entryDx=0;entryDy=0;endArrow=none;endFill=0;" parent="1" source="1pBHq02dKkBtK17RjuQz-73" target="1pBHq02dKkBtK17RjuQz-9" edge="1">
          <mxGeometry relative="1" as="geometry" />
        </mxCell>
        <mxCell id="1pBHq02dKkBtK17RjuQz-73" value="on" style="shape=rhombus;perimeter=rhombusPerimeter;whiteSpace=wrap;html=1;align=center;fillColor=#e1d5e7;strokeColor=#9673a6;" parent="1" vertex="1">
          <mxGeometry x="691" y="262" width="80" height="45" as="geometry" />
        </mxCell>
        <mxCell id="1pBHq02dKkBtK17RjuQz-74" value="1" style="text;html=1;strokeColor=none;fillColor=none;align=center;verticalAlign=middle;whiteSpace=wrap;rounded=0;" parent="1" vertex="1">
          <mxGeometry x="771" y="262" width="20" height="20" as="geometry" />
        </mxCell>
        <mxCell id="1pBHq02dKkBtK17RjuQz-75" value="m" style="text;html=1;strokeColor=none;fillColor=none;align=center;verticalAlign=middle;whiteSpace=wrap;rounded=0;" parent="1" vertex="1">
          <mxGeometry x="671" y="262" width="20" height="20" as="geometry" />
        </mxCell>
        <mxCell id="1pBHq02dKkBtK17RjuQz-92" value="Order Details" style="shape=ext;margin=3;double=1;whiteSpace=wrap;html=1;align=center;fillColor=#fff2cc;strokeColor=#d6b656;" parent="1" vertex="1">
          <mxGeometry x="232" y="489" width="135" height="53" as="geometry" />
        </mxCell>
        <mxCell id="1pBHq02dKkBtK17RjuQz-93" value="&lt;span style=&quot;border-bottom: 1px dotted&quot;&gt;id&lt;/span&gt;" style="ellipse;whiteSpace=wrap;html=1;align=center;fillColor=#dae8fc;strokeColor=#6c8ebf;" parent="1" vertex="1">
          <mxGeometry x="132" y="582" width="100" height="40" as="geometry" />
        </mxCell>
        <mxCell id="1pBHq02dKkBtK17RjuQz-111" style="edgeStyle=orthogonalEdgeStyle;rounded=0;orthogonalLoop=1;jettySize=auto;html=1;exitX=0.5;exitY=0;exitDx=0;exitDy=0;entryX=1;entryY=1;entryDx=0;entryDy=0;curved=1;" parent="1" source="1pBHq02dKkBtK17RjuQz-109" target="1pBHq02dKkBtK17RjuQz-16" edge="1">
          <mxGeometry relative="1" as="geometry" />
        </mxCell>
        <mxCell id="1pBHq02dKkBtK17RjuQz-109" value="rate" style="ellipse;shape=doubleEllipse;margin=3;whiteSpace=wrap;html=1;align=center;" parent="1" vertex="1">
          <mxGeometry x="1039" y="489" width="100" height="40" as="geometry" />
        </mxCell>
        <mxCell id="kIKHbUtZ5n_wdD_s_o---1" value="Customers" style="whiteSpace=wrap;html=1;align=center;fillColor=#fff2cc;strokeColor=#d6b656;" vertex="1" parent="1">
          <mxGeometry x="1103" y="1088" width="130" height="50" as="geometry" />
        </mxCell>
        <mxCell id="kIKHbUtZ5n_wdD_s_o---2" value="customer_id" style="ellipse;whiteSpace=wrap;html=1;align=center;fontStyle=4;fillColor=#dae8fc;strokeColor=#6c8ebf;" vertex="1" parent="1">
          <mxGeometry x="998" y="985" width="100" height="40" as="geometry" />
        </mxCell>
        <mxCell id="kIKHbUtZ5n_wdD_s_o---3" value="customer_name" style="ellipse;whiteSpace=wrap;html=1;align=center;" vertex="1" parent="1">
          <mxGeometry x="1118" y="985" width="100" height="40" as="geometry" />
        </mxCell>
        <mxCell id="kIKHbUtZ5n_wdD_s_o---4" value="customer_phone" style="ellipse;whiteSpace=wrap;html=1;align=center;" vertex="1" parent="1">
          <mxGeometry x="1238" y="985" width="100" height="40" as="geometry" />
        </mxCell>
        <mxCell id="kIKHbUtZ5n_wdD_s_o---5" value="" style="endArrow=none;html=1;rounded=0;exitX=0.5;exitY=1;exitDx=0;exitDy=0;entryX=0.25;entryY=0;entryDx=0;entryDy=0;edgeStyle=orthogonalEdgeStyle;curved=1;" edge="1" parent="1" source="kIKHbUtZ5n_wdD_s_o---2" target="kIKHbUtZ5n_wdD_s_o---1">
          <mxGeometry width="50" height="50" relative="1" as="geometry">
            <mxPoint x="1128" y="1135" as="sourcePoint" />
            <mxPoint x="1178" y="1085" as="targetPoint" />
          </mxGeometry>
        </mxCell>
        <mxCell id="kIKHbUtZ5n_wdD_s_o---6" value="" style="endArrow=none;html=1;rounded=0;exitX=0.5;exitY=1;exitDx=0;exitDy=0;entryX=0.5;entryY=0;entryDx=0;entryDy=0;edgeStyle=orthogonalEdgeStyle;curved=1;" edge="1" parent="1" source="kIKHbUtZ5n_wdD_s_o---3" target="kIKHbUtZ5n_wdD_s_o---1">
          <mxGeometry width="50" height="50" relative="1" as="geometry">
            <mxPoint x="1128" y="1135" as="sourcePoint" />
            <mxPoint x="1178" y="1085" as="targetPoint" />
          </mxGeometry>
        </mxCell>
        <mxCell id="kIKHbUtZ5n_wdD_s_o---7" value="" style="endArrow=none;html=1;rounded=0;exitX=0.5;exitY=1;exitDx=0;exitDy=0;entryX=0.75;entryY=0;entryDx=0;entryDy=0;edgeStyle=orthogonalEdgeStyle;curved=1;" edge="1" parent="1" source="kIKHbUtZ5n_wdD_s_o---4" target="kIKHbUtZ5n_wdD_s_o---1">
          <mxGeometry width="50" height="50" relative="1" as="geometry">
            <mxPoint x="1128" y="1135" as="sourcePoint" />
            <mxPoint x="1178" y="1085" as="targetPoint" />
          </mxGeometry>
        </mxCell>
        <mxCell id="kIKHbUtZ5n_wdD_s_o---62" style="edgeStyle=orthogonalEdgeStyle;rounded=0;orthogonalLoop=1;jettySize=auto;html=1;exitX=0.5;exitY=0;exitDx=0;exitDy=0;entryX=0.5;entryY=1;entryDx=0;entryDy=0;" edge="1" parent="1" source="kIKHbUtZ5n_wdD_s_o---11" target="kIKHbUtZ5n_wdD_s_o---44">
          <mxGeometry relative="1" as="geometry">
            <Array as="points">
              <mxPoint x="929" y="964" />
              <mxPoint x="900" y="964" />
            </Array>
          </mxGeometry>
        </mxCell>
        <mxCell id="kIKHbUtZ5n_wdD_s_o---11" value="orders" style="shape=rhombus;perimeter=rhombusPerimeter;whiteSpace=wrap;html=1;align=center;fillColor=#e1d5e7;strokeColor=#9673a6;" vertex="1" parent="1">
          <mxGeometry x="888" y="1077.5" width="80" height="45" as="geometry" />
        </mxCell>
        <mxCell id="kIKHbUtZ5n_wdD_s_o---12" value="" style="endArrow=none;html=1;rounded=0;exitX=1;exitY=0.5;exitDx=0;exitDy=0;entryX=0;entryY=0.5;entryDx=0;entryDy=0;edgeStyle=orthogonalEdgeStyle;" edge="1" parent="1" source="kIKHbUtZ5n_wdD_s_o---58" target="kIKHbUtZ5n_wdD_s_o---11">
          <mxGeometry relative="1" as="geometry">
            <mxPoint x="758" y="1099.5" as="sourcePoint" />
            <mxPoint x="1008" y="1097" as="targetPoint" />
          </mxGeometry>
        </mxCell>
        <mxCell id="kIKHbUtZ5n_wdD_s_o---13" value="" style="endArrow=none;html=1;rounded=0;entryX=0;entryY=0.25;entryDx=0;entryDy=0;exitX=1;exitY=0.5;exitDx=0;exitDy=0;edgeStyle=orthogonalEdgeStyle;" edge="1" parent="1" source="kIKHbUtZ5n_wdD_s_o---11" target="kIKHbUtZ5n_wdD_s_o---1">
          <mxGeometry relative="1" as="geometry">
            <mxPoint x="848" y="1085" as="sourcePoint" />
            <mxPoint x="1008" y="1085" as="targetPoint" />
          </mxGeometry>
        </mxCell>
        <mxCell id="kIKHbUtZ5n_wdD_s_o---14" value="m" style="text;html=1;strokeColor=none;fillColor=none;align=center;verticalAlign=middle;whiteSpace=wrap;rounded=0;" vertex="1" parent="1">
          <mxGeometry x="968" y="1077.5" width="20" height="20" as="geometry" />
        </mxCell>
        <mxCell id="kIKHbUtZ5n_wdD_s_o---15" value="m" style="text;html=1;strokeColor=none;fillColor=none;align=center;verticalAlign=middle;whiteSpace=wrap;rounded=0;" vertex="1" parent="1">
          <mxGeometry x="908" y="1057.5" width="20" height="20" as="geometry" />
        </mxCell>
        <mxCell id="kIKHbUtZ5n_wdD_s_o---16" style="edgeStyle=orthogonalEdgeStyle;rounded=0;orthogonalLoop=1;jettySize=auto;html=1;entryX=0;entryY=0.5;entryDx=0;entryDy=0;endArrow=none;endFill=0;exitX=0;exitY=0.5;exitDx=0;exitDy=0;" edge="1" parent="1" source="kIKHbUtZ5n_wdD_s_o---58" target="kIKHbUtZ5n_wdD_s_o---35">
          <mxGeometry relative="1" as="geometry">
            <mxPoint x="571" y="1243" as="sourcePoint" />
          </mxGeometry>
        </mxCell>
        <mxCell id="kIKHbUtZ5n_wdD_s_o---17" style="edgeStyle=orthogonalEdgeStyle;rounded=0;orthogonalLoop=1;jettySize=auto;html=1;exitX=0.5;exitY=0;exitDx=0;exitDy=0;entryX=0.25;entryY=1;entryDx=0;entryDy=0;curved=1;endArrow=none;endFill=0;" edge="1" parent="1" source="kIKHbUtZ5n_wdD_s_o---59">
          <mxGeometry relative="1" as="geometry">
            <mxPoint x="541" y="1309" as="sourcePoint" />
            <mxPoint x="628.5" y="1270" as="targetPoint" />
          </mxGeometry>
        </mxCell>
        <mxCell id="kIKHbUtZ5n_wdD_s_o---18" style="edgeStyle=orthogonalEdgeStyle;rounded=0;orthogonalLoop=1;jettySize=auto;html=1;exitX=0.5;exitY=0;exitDx=0;exitDy=0;entryX=0.5;entryY=1;entryDx=0;entryDy=0;endArrow=none;endFill=0;" edge="1" parent="1" source="kIKHbUtZ5n_wdD_s_o---19">
          <mxGeometry relative="1" as="geometry">
            <mxPoint x="661" y="1270" as="targetPoint" />
          </mxGeometry>
        </mxCell>
        <mxCell id="kIKHbUtZ5n_wdD_s_o---19" value="quantity" style="ellipse;whiteSpace=wrap;html=1;align=center;" vertex="1" parent="1">
          <mxGeometry x="611" y="1313" width="100" height="40" as="geometry" />
        </mxCell>
        <mxCell id="kIKHbUtZ5n_wdD_s_o---25" style="edgeStyle=orthogonalEdgeStyle;rounded=0;orthogonalLoop=1;jettySize=auto;html=1;exitX=0.5;exitY=0;exitDx=0;exitDy=0;entryX=0.75;entryY=1;entryDx=0;entryDy=0;curved=1;endArrow=none;endFill=0;" edge="1" parent="1" source="kIKHbUtZ5n_wdD_s_o---26">
          <mxGeometry relative="1" as="geometry">
            <mxPoint x="693.5" y="1270" as="targetPoint" />
          </mxGeometry>
        </mxCell>
        <mxCell id="kIKHbUtZ5n_wdD_s_o---26" value="Price" style="ellipse;whiteSpace=wrap;html=1;align=center;dashed=1;" vertex="1" parent="1">
          <mxGeometry x="731" y="1309" width="100" height="40" as="geometry" />
        </mxCell>
        <mxCell id="kIKHbUtZ5n_wdD_s_o---27" style="edgeStyle=orthogonalEdgeStyle;rounded=0;orthogonalLoop=1;jettySize=auto;html=1;exitX=0;exitY=0.25;exitDx=0;exitDy=0;entryX=1;entryY=0.5;entryDx=0;entryDy=0;curved=1;endArrow=none;endFill=0;" edge="1" parent="1" source="kIKHbUtZ5n_wdD_s_o---29" target="kIKHbUtZ5n_wdD_s_o---39">
          <mxGeometry relative="1" as="geometry" />
        </mxCell>
        <mxCell id="kIKHbUtZ5n_wdD_s_o---28" style="edgeStyle=orthogonalEdgeStyle;rounded=0;orthogonalLoop=1;jettySize=auto;html=1;exitX=0.5;exitY=1;exitDx=0;exitDy=0;entryX=1;entryY=0.5;entryDx=0;entryDy=0;endArrow=none;endFill=0;" edge="1" parent="1" source="kIKHbUtZ5n_wdD_s_o---29" target="kIKHbUtZ5n_wdD_s_o---35">
          <mxGeometry relative="1" as="geometry">
            <Array as="points">
              <mxPoint x="636" y="1064" />
              <mxPoint x="666" y="1064" />
              <mxPoint x="666" y="1178" />
            </Array>
          </mxGeometry>
        </mxCell>
        <mxCell id="kIKHbUtZ5n_wdD_s_o---29" value="Menu Items" style="whiteSpace=wrap;html=1;align=center;fillColor=#fff2cc;strokeColor=#d6b656;" vertex="1" parent="1">
          <mxGeometry x="600" y="1014" width="130" height="50" as="geometry" />
        </mxCell>
        <mxCell id="kIKHbUtZ5n_wdD_s_o---30" value="item_id" style="ellipse;whiteSpace=wrap;html=1;align=center;fontStyle=4;fillColor=#dae8fc;strokeColor=#6c8ebf;" vertex="1" parent="1">
          <mxGeometry x="495" y="924" width="100" height="40" as="geometry" />
        </mxCell>
        <mxCell id="kIKHbUtZ5n_wdD_s_o---31" value="name" style="ellipse;whiteSpace=wrap;html=1;align=center;" vertex="1" parent="1">
          <mxGeometry x="615" y="924" width="100" height="40" as="geometry" />
        </mxCell>
        <mxCell id="kIKHbUtZ5n_wdD_s_o---32" value="" style="endArrow=none;html=1;rounded=0;exitX=0.5;exitY=1;exitDx=0;exitDy=0;entryX=0.25;entryY=0;entryDx=0;entryDy=0;edgeStyle=orthogonalEdgeStyle;curved=1;" edge="1" parent="1" source="kIKHbUtZ5n_wdD_s_o---30" target="kIKHbUtZ5n_wdD_s_o---29">
          <mxGeometry width="50" height="50" relative="1" as="geometry">
            <mxPoint x="625" y="1074" as="sourcePoint" />
            <mxPoint x="675" y="1024" as="targetPoint" />
          </mxGeometry>
        </mxCell>
        <mxCell id="kIKHbUtZ5n_wdD_s_o---33" value="" style="endArrow=none;html=1;rounded=0;exitX=0.5;exitY=1;exitDx=0;exitDy=0;entryX=0.5;entryY=0;entryDx=0;entryDy=0;edgeStyle=orthogonalEdgeStyle;curved=1;" edge="1" parent="1" source="kIKHbUtZ5n_wdD_s_o---31" target="kIKHbUtZ5n_wdD_s_o---29">
          <mxGeometry width="50" height="50" relative="1" as="geometry">
            <mxPoint x="625" y="1074" as="sourcePoint" />
            <mxPoint x="675" y="1024" as="targetPoint" />
          </mxGeometry>
        </mxCell>
        <mxCell id="kIKHbUtZ5n_wdD_s_o---34" value="" style="endArrow=none;html=1;rounded=0;exitX=0.5;exitY=1;exitDx=0;exitDy=0;entryX=0.75;entryY=0;entryDx=0;entryDy=0;edgeStyle=orthogonalEdgeStyle;curved=1;" edge="1" parent="1" source="kIKHbUtZ5n_wdD_s_o---38" target="kIKHbUtZ5n_wdD_s_o---29">
          <mxGeometry width="50" height="50" relative="1" as="geometry">
            <mxPoint x="785.0000000000002" y="964" as="sourcePoint" />
            <mxPoint x="675" y="1024" as="targetPoint" />
          </mxGeometry>
        </mxCell>
        <mxCell id="kIKHbUtZ5n_wdD_s_o---35" value="has" style="shape=rhombus;perimeter=rhombusPerimeter;whiteSpace=wrap;html=1;align=center;fillColor=#e1d5e7;strokeColor=#9673a6;" vertex="1" parent="1">
          <mxGeometry x="566" y="1155.5" width="80" height="45" as="geometry" />
        </mxCell>
        <mxCell id="kIKHbUtZ5n_wdD_s_o---36" value="1" style="text;html=1;strokeColor=none;fillColor=none;align=center;verticalAlign=middle;whiteSpace=wrap;rounded=0;" vertex="1" parent="1">
          <mxGeometry x="646" y="1155.5" width="20" height="20" as="geometry" />
        </mxCell>
        <mxCell id="kIKHbUtZ5n_wdD_s_o---37" value="n" style="text;html=1;strokeColor=none;fillColor=none;align=center;verticalAlign=middle;whiteSpace=wrap;rounded=0;" vertex="1" parent="1">
          <mxGeometry x="546" y="1155.5" width="20" height="20" as="geometry" />
        </mxCell>
        <mxCell id="kIKHbUtZ5n_wdD_s_o---38" value="description" style="ellipse;whiteSpace=wrap;html=1;align=center;" vertex="1" parent="1">
          <mxGeometry x="735" y="924" width="100" height="40" as="geometry" />
        </mxCell>
        <mxCell id="kIKHbUtZ5n_wdD_s_o---39" value="category" style="ellipse;whiteSpace=wrap;html=1;align=center;" vertex="1" parent="1">
          <mxGeometry x="425" y="994" width="100" height="40" as="geometry" />
        </mxCell>
        <mxCell id="kIKHbUtZ5n_wdD_s_o---40" style="edgeStyle=orthogonalEdgeStyle;rounded=0;orthogonalLoop=1;jettySize=auto;html=1;exitX=1;exitY=0.5;exitDx=0;exitDy=0;entryX=0;entryY=0.75;entryDx=0;entryDy=0;curved=1;endArrow=none;endFill=0;" edge="1" parent="1" source="kIKHbUtZ5n_wdD_s_o---41" target="kIKHbUtZ5n_wdD_s_o---29">
          <mxGeometry relative="1" as="geometry" />
        </mxCell>
        <mxCell id="kIKHbUtZ5n_wdD_s_o---41" value="price" style="ellipse;whiteSpace=wrap;html=1;align=center;" vertex="1" parent="1">
          <mxGeometry x="425" y="1054" width="100" height="40" as="geometry" />
        </mxCell>
        <mxCell id="kIKHbUtZ5n_wdD_s_o---42" style="edgeStyle=orthogonalEdgeStyle;rounded=0;orthogonalLoop=1;jettySize=auto;html=1;exitX=0.5;exitY=0;exitDx=0;exitDy=0;entryX=0;entryY=1;entryDx=0;entryDy=0;curved=1;" edge="1" parent="1" source="kIKHbUtZ5n_wdD_s_o---43" target="kIKHbUtZ5n_wdD_s_o---11">
          <mxGeometry relative="1" as="geometry" />
        </mxCell>
        <mxCell id="kIKHbUtZ5n_wdD_s_o---43" value="order_date" style="ellipse;whiteSpace=wrap;html=1;align=center;" vertex="1" parent="1">
          <mxGeometry x="818" y="1154" width="100" height="40" as="geometry" />
        </mxCell>
        <mxCell id="kIKHbUtZ5n_wdD_s_o---44" value="Tables" style="whiteSpace=wrap;html=1;align=center;fillColor=#fff2cc;strokeColor=#d6b656;" vertex="1" parent="1">
          <mxGeometry x="835" y="850" width="130" height="50" as="geometry" />
        </mxCell>
        <mxCell id="kIKHbUtZ5n_wdD_s_o---45" style="edgeStyle=orthogonalEdgeStyle;rounded=0;orthogonalLoop=1;jettySize=auto;html=1;exitX=0.5;exitY=1;exitDx=0;exitDy=0;entryX=0;entryY=0.25;entryDx=0;entryDy=0;curved=1;endArrow=none;endFill=0;" edge="1" parent="1" source="kIKHbUtZ5n_wdD_s_o---46" target="kIKHbUtZ5n_wdD_s_o---44">
          <mxGeometry relative="1" as="geometry" />
        </mxCell>
        <mxCell id="kIKHbUtZ5n_wdD_s_o---46" value="table_code" style="ellipse;whiteSpace=wrap;html=1;align=center;fontStyle=4;fillColor=#dae8fc;strokeColor=#6c8ebf;" vertex="1" parent="1">
          <mxGeometry x="700" y="830" width="100" height="40" as="geometry" />
        </mxCell>
        <mxCell id="kIKHbUtZ5n_wdD_s_o---47" style="edgeStyle=orthogonalEdgeStyle;rounded=0;orthogonalLoop=1;jettySize=auto;html=1;exitX=0.5;exitY=1;exitDx=0;exitDy=0;entryX=0.25;entryY=0;entryDx=0;entryDy=0;curved=1;endArrow=none;endFill=0;" edge="1" parent="1" source="kIKHbUtZ5n_wdD_s_o---48" target="kIKHbUtZ5n_wdD_s_o---44">
          <mxGeometry relative="1" as="geometry" />
        </mxCell>
        <mxCell id="kIKHbUtZ5n_wdD_s_o---48" value="location" style="ellipse;whiteSpace=wrap;html=1;align=center;" vertex="1" parent="1">
          <mxGeometry x="800" y="760" width="100" height="40" as="geometry" />
        </mxCell>
        <mxCell id="kIKHbUtZ5n_wdD_s_o---49" style="edgeStyle=orthogonalEdgeStyle;rounded=0;orthogonalLoop=1;jettySize=auto;html=1;exitX=0.5;exitY=1;exitDx=0;exitDy=0;entryX=0.75;entryY=0;entryDx=0;entryDy=0;endArrow=none;endFill=0;curved=1;" edge="1" parent="1" source="kIKHbUtZ5n_wdD_s_o---50" target="kIKHbUtZ5n_wdD_s_o---44">
          <mxGeometry relative="1" as="geometry" />
        </mxCell>
        <mxCell id="kIKHbUtZ5n_wdD_s_o---50" value="num of seats" style="ellipse;whiteSpace=wrap;html=1;align=center;" vertex="1" parent="1">
          <mxGeometry x="940" y="760" width="100" height="40" as="geometry" />
        </mxCell>
        <mxCell id="kIKHbUtZ5n_wdD_s_o---51" style="edgeStyle=orthogonalEdgeStyle;rounded=0;orthogonalLoop=1;jettySize=auto;html=1;exitX=0.5;exitY=1;exitDx=0;exitDy=0;entryX=1;entryY=0.25;entryDx=0;entryDy=0;curved=1;endArrow=none;endFill=0;" edge="1" parent="1" source="kIKHbUtZ5n_wdD_s_o---52" target="kIKHbUtZ5n_wdD_s_o---44">
          <mxGeometry relative="1" as="geometry" />
        </mxCell>
        <mxCell id="kIKHbUtZ5n_wdD_s_o---52" value="class" style="ellipse;whiteSpace=wrap;html=1;align=center;" vertex="1" parent="1">
          <mxGeometry x="1020" y="830" width="100" height="40" as="geometry" />
        </mxCell>
        <mxCell id="kIKHbUtZ5n_wdD_s_o---57" value="m" style="text;html=1;strokeColor=none;fillColor=none;align=center;verticalAlign=middle;whiteSpace=wrap;rounded=0;" vertex="1" parent="1">
          <mxGeometry x="868" y="1077.5" width="20" height="20" as="geometry" />
        </mxCell>
        <mxCell id="kIKHbUtZ5n_wdD_s_o---58" value="Order Details" style="shape=ext;margin=3;double=1;whiteSpace=wrap;html=1;align=center;fillColor=#fff2cc;strokeColor=#d6b656;" vertex="1" parent="1">
          <mxGeometry x="595" y="1220" width="135" height="53" as="geometry" />
        </mxCell>
        <mxCell id="kIKHbUtZ5n_wdD_s_o---59" value="&lt;span style=&quot;border-bottom: 1px dotted&quot;&gt;id&lt;/span&gt;" style="ellipse;whiteSpace=wrap;html=1;align=center;fillColor=#dae8fc;strokeColor=#6c8ebf;" vertex="1" parent="1">
          <mxGeometry x="495" y="1313" width="100" height="40" as="geometry" />
        </mxCell>
        <mxCell id="kIKHbUtZ5n_wdD_s_o---60" style="edgeStyle=orthogonalEdgeStyle;rounded=0;orthogonalLoop=1;jettySize=auto;html=1;exitX=0.5;exitY=0;exitDx=0;exitDy=0;entryX=1;entryY=1;entryDx=0;entryDy=0;curved=1;" edge="1" parent="1" source="kIKHbUtZ5n_wdD_s_o---61" target="kIKHbUtZ5n_wdD_s_o---11">
          <mxGeometry relative="1" as="geometry" />
        </mxCell>
        <mxCell id="kIKHbUtZ5n_wdD_s_o---61" value="rate" style="ellipse;shape=doubleEllipse;margin=3;whiteSpace=wrap;html=1;align=center;" vertex="1" parent="1">
          <mxGeometry x="939" y="1154" width="100" height="40" as="geometry" />
        </mxCell>
      </root>
    </mxGraphModel>
  </diagram>
</mxfile>
